<svg width="561" height="251" viewBox="0 0 561 251" fill="none" xmlns="http://www.w3.org/2000/svg">
<path d="M0.905273 30.1972L6.20333 32.4915L5.54124 26.7561L0.905273 30.1972ZM720.135 25.2603L717.863 30.5682L723.596 29.8813L720.135 25.2603ZM5.43072 30.1781C96.38 20.6138 179.796 69.1642 255.679 176.095L256.494 175.516C180.502 68.4322 96.7791 19.5663 5.32613 29.1836L5.43072 30.1781ZM255.679 176.095C274.984 203.299 292.299 223.026 307.625 235.248C322.938 247.46 336.363 252.255 347.845 249.368C359.33 246.479 368.657 235.958 375.907 218.068C383.163 200.165 388.387 174.767 391.597 141.9L390.601 141.803C387.396 174.632 382.183 199.92 374.98 217.693C367.771 235.481 358.618 245.627 347.601 248.398C336.58 251.169 323.482 246.614 308.249 234.467C293.03 222.33 275.778 202.689 256.494 175.516L255.679 176.095ZM391.597 141.9C394.803 109.071 399.541 81.9854 405.807 60.636C412.075 39.2789 419.86 23.7038 429.13 13.8536C438.38 4.02473 449.109 -0.108105 461.353 1.39526C473.632 2.90301 487.496 10.0877 502.951 23.0425L503.593 22.2761C488.073 9.26657 474.031 1.94439 461.475 0.402709C448.883 -1.14337 437.847 3.13177 428.401 13.1683C418.976 23.1835 411.135 38.9312 404.848 60.3544C398.558 81.7852 393.811 108.938 390.601 141.803L391.597 141.9ZM502.951 23.0425C564.936 75 617.805 92.4377 661.457 74.9566L661.085 74.0283C617.973 91.2933 565.51 74.1756 503.593 22.2761L502.951 23.0425ZM661.457 74.9566C681.085 67.096 695.888 59.4193 705.839 51.9199C715.773 44.4339 720.976 37.0453 721.17 29.7422L720.17 29.7156C719.989 36.547 715.104 43.6862 705.238 51.1213C695.389 58.5431 680.68 66.1809 661.085 74.0283L661.457 74.9566Z" fill="#E98FDA"/>
</svg>
