<svg width="534" height="306" viewBox="0 0 534 306" fill="none" xmlns="http://www.w3.org/2000/svg">
<path d="M0.697951 3.60155C0.47789 3.76836 0.434728 4.08199 0.601545 4.30205L3.31999 7.88814C3.4868 8.1082 3.80043 8.15137 4.02049 7.98455C4.24055 7.81773 4.28371 7.50411 4.1169 7.28404L1.7005 4.09641L4.88814 1.68001C5.1082 1.5132 5.15137 1.19957 4.98455 0.979508C4.81773 0.759448 4.50411 0.716285 4.28404 0.883102L0.697951 3.60155ZM697.5 185.382C697.5 185.105 697.276 184.882 697 184.882C696.724 184.882 696.5 185.105 696.5 185.382H697.5ZM0.931831 4.49533C93.4762 17.2316 162.965 85.9333 209.331 210.866L210.269 210.519C163.835 85.4046 94.1238 16.3113 1.06817 3.50467L0.931831 4.49533ZM209.331 210.866C220.938 242.14 232.557 265.677 244.198 281.449C255.828 297.208 267.555 305.314 279.392 305.497C291.234 305.679 302.966 297.93 314.599 282.527C326.241 267.112 337.861 243.931 349.468 213.015L348.532 212.664C336.939 243.544 325.359 266.621 313.801 281.925C302.234 297.241 290.766 304.672 279.408 304.497C268.045 304.322 256.572 296.532 245.002 280.855C233.443 265.193 221.862 241.757 210.269 210.519L209.331 210.866ZM349.468 213.015C361.062 182.134 372.649 157.198 384.227 138.198C395.809 119.191 407.359 106.161 418.863 99.0459C430.342 91.946 441.775 90.731 453.213 95.3521C464.684 99.9866 476.215 110.515 487.791 127.028L488.609 126.454C476.985 109.871 465.316 99.1637 453.587 94.4249C441.825 89.6725 430.058 90.9456 418.337 98.1955C406.641 105.43 394.991 118.612 383.373 137.678C371.751 156.75 360.138 181.749 348.532 212.664L349.468 213.015ZM487.791 127.028C534.216 193.258 580.771 223.785 627.459 218.198L627.341 217.205C581.229 222.723 534.983 192.61 488.609 126.454L487.791 127.028ZM627.459 218.198C650.676 215.419 668.138 211.33 679.811 205.91C691.471 200.495 697.5 193.675 697.5 185.382H696.5C696.5 193.082 690.929 199.644 679.389 205.003C667.862 210.356 650.524 214.43 627.341 217.205L627.459 218.198Z" fill="#C0FF71"/>
</svg>
