<svg width="553" height="251" viewBox="0 0 553 251" fill="none" xmlns="http://www.w3.org/2000/svg">
<path d="M0 30.1381L5.29806 32.4324L4.63597 26.697L0 30.1381ZM719.229 25.2011L716.958 30.509L722.69 29.8222L719.229 25.2011ZM4.52544 30.1189C95.4747 20.5546 178.89 69.1051 254.773 176.036L255.589 175.457C179.597 68.3731 95.8738 19.5071 4.42086 29.1244L4.52544 30.1189ZM254.773 176.036C274.079 203.24 291.394 222.967 306.72 235.189C322.033 247.401 335.458 252.196 346.939 249.308C358.424 246.42 367.752 235.899 375.002 218.009C382.257 200.106 387.482 174.708 390.691 141.841L389.696 141.744C386.49 174.573 381.278 199.86 374.075 217.634C366.866 235.422 357.713 245.568 346.696 248.339C335.675 251.11 322.576 246.555 307.344 234.407C292.124 222.271 274.872 202.63 255.589 175.457L254.773 176.036ZM390.691 141.841C393.897 109.011 398.636 81.9262 404.902 60.5768C411.17 39.2198 418.954 23.6447 428.224 13.7945C437.474 3.96559 448.204 -0.167248 460.448 1.33611C472.727 2.84387 486.59 10.0285 502.046 22.9833L502.688 22.2169C487.168 9.20743 473.125 1.88525 460.569 0.343566C447.978 -1.20251 436.942 3.07263 427.496 13.1091C418.071 23.1244 410.23 38.872 403.942 60.2952C397.653 81.726 392.906 108.878 389.696 141.744L390.691 141.841ZM502.046 22.9833C564.031 74.9409 616.9 92.3786 660.552 74.8974L660.18 73.9691C617.068 91.2341 564.604 74.1164 502.688 22.2169L502.046 22.9833ZM660.552 74.8974C680.18 67.0369 694.983 59.3602 704.934 51.8608C714.868 44.3747 720.07 36.9861 720.265 29.6831L719.265 29.6565C719.083 36.4879 714.198 43.6271 704.332 51.0622C694.484 58.484 679.775 66.1218 660.18 73.9691L660.552 74.8974Z" fill="#E98FDA"/>
</svg>
